<svg width="50" height="50" viewBox="0 0 50 50" fill="none" xmlns="http://www.w3.org/2000/svg">
<g id="fluent:sport-basketball-20-regular">
<path id="Vector" d="M25 23.2325L27.7075 20.525C26.61 19.135 25.745 17.41 25.0525 15.615C24.19 13.3725 23.5675 10.9225 23.1175 8.67253C23.0478 8.32311 22.9812 7.97309 22.9175 7.62253C19.4469 8.03382 16.1803 9.47983 13.5425 11.7725L25 23.2325ZM29.475 22.2925L26.7675 25L38.2275 36.46C40.5201 33.8222 41.9661 30.5556 42.3775 27.085C42.0286 27.0221 41.6803 26.9563 41.3325 26.8875C39.0825 26.4375 36.6325 25.8125 34.39 24.95C32.5925 24.26 30.865 23.3925 29.475 22.2925ZM42.495 24.5675C42.3997 20.5077 40.8904 16.6085 38.2275 13.5425L31.2575 20.51C32.3325 21.31 33.715 22.0125 35.2875 22.6175C37.3525 23.4125 39.655 24.0025 41.8225 24.4375L42.495 24.5675ZM29.49 18.7425L36.46 11.7725C33.394 9.10965 29.4948 7.60035 25.435 7.50503L25.5675 8.18003C26.0025 10.35 26.5925 12.6525 27.3875 14.7175C27.99 16.2875 28.69 17.6675 29.49 18.7425ZM25 26.765L22.2975 29.4675C23.3975 30.8575 24.2625 32.585 24.955 34.3825C25.8175 36.625 26.4425 39.075 26.8925 41.325C26.9625 41.68 27.03 42.03 27.0925 42.375C30.5605 41.9623 33.8243 40.5164 36.46 38.225L25 26.765ZM20.515 31.25L13.54 38.225C16.6073 40.889 20.5085 42.3984 24.57 42.4925C24.53 42.2675 24.485 42.0425 24.44 41.815C24.005 39.645 23.415 37.345 22.62 35.28C22.0175 33.7075 21.315 32.3275 20.515 31.2525V31.25ZM18.745 29.485C17.67 28.685 16.29 27.985 14.72 27.38C12.655 26.585 10.3525 25.9925 8.18501 25.56C7.9586 25.5145 7.73193 25.4704 7.50501 25.4275C7.59918 29.4891 9.10854 33.3902 11.7725 36.4575L18.7475 29.4825L18.745 29.485ZM20.5275 27.7L23.2325 25L11.7725 13.54C9.48072 16.1764 8.03476 19.4412 7.62251 22.91C7.97001 22.9725 8.32001 23.04 8.67501 23.11C10.925 23.56 13.375 24.185 15.6175 25.0475C17.4125 25.7375 19.14 26.605 20.5275 27.7025V27.7ZM39.1425 39.14C37.2895 41.0158 35.084 42.5067 32.6527 43.5268C30.2214 44.547 27.6124 45.0764 24.9757 45.0845C22.3391 45.0927 19.7269 44.5794 17.2894 43.5742C14.8518 42.569 12.6371 41.0917 10.7726 39.2274C8.90817 37.3631 7.43072 35.1485 6.42531 32.7111C5.41989 30.2736 4.90636 27.6615 4.91424 25.0248C4.92213 22.3882 5.45128 19.7791 6.47126 17.3477C7.49124 14.9164 8.98191 12.7107 10.8575 10.8575C14.6083 7.1067 19.6955 4.99951 25 4.99951C30.3045 4.99951 35.3917 7.1067 39.1425 10.8575C42.8933 14.6084 45.0005 19.6956 45.0005 25C45.0005 30.3045 42.8933 35.3892 39.1425 39.14Z" fill="white"/>
</g>
</svg>
