<svg width="51" height="50" viewBox="0 0 51 50" fill="none" xmlns="http://www.w3.org/2000/svg">
<g id="streamline:money-cashier-shop-shopping-pay-payment-cashier-store-cash-register-machine" clip-path="url(#clip0_1_196)">
<g id="Group">
<path id="Vector" d="M23.7143 39.2858H27.2857M36.2143 17.8572V10.7143M20.1429 17.8572V5.3572H9.42857V17.8572M43.3571 6.25005C43.3571 6.83631 43.2417 7.41683 43.0173 7.95846C42.793 8.50009 42.4641 8.99223 42.0496 9.40678C41.635 9.82133 41.1429 10.1502 40.6013 10.3745C40.0596 10.5989 39.4791 10.7143 38.8929 10.7143H33.5357C32.3517 10.7143 31.2162 10.244 30.379 9.40678C29.5418 8.56956 29.0714 7.43405 29.0714 6.25005C29.0714 5.06605 29.5418 3.93054 30.379 3.09333C31.2162 2.25611 32.3517 1.78577 33.5357 1.78577H38.8929C39.4791 1.78577 40.0596 1.90124 40.6013 2.12559C41.1429 2.34994 41.635 2.67878 42.0496 3.09333C42.4641 3.50787 42.793 4.00001 43.0173 4.54164C43.2417 5.08328 43.3571 5.66379 43.3571 6.25005Z" stroke="white" stroke-width="3.57143" stroke-linecap="round" stroke-linejoin="round"/>
<path id="Vector_2" d="M45.1429 30.3572H5.85715C3.8847 30.3572 2.28572 31.9562 2.28572 33.9286V44.6429C2.28572 46.6153 3.8847 48.2143 5.85715 48.2143H45.1429C47.1153 48.2143 48.7143 46.6153 48.7143 44.6429V33.9286C48.7143 31.9562 47.1153 30.3572 45.1429 30.3572Z" stroke="white" stroke-width="3.57143" stroke-linecap="round" stroke-linejoin="round"/>
<path id="Vector_3" d="M45.1429 30.3572V21.4286C45.1429 20.4814 44.7666 19.573 44.0968 18.9032C43.427 18.2335 42.5186 17.8572 41.5714 17.8572H9.42858C8.48137 17.8572 7.57297 18.2335 6.90319 18.9032C6.23342 19.573 5.85715 20.4814 5.85715 21.4286V30.3572" stroke="white" stroke-width="3.57143" stroke-linecap="round" stroke-linejoin="round"/>
</g>
</g>
<defs>
<clipPath id="clip0_1_196">
<rect width="50" height="50" fill="white" transform="translate(0.5)"/>
</clipPath>
</defs>
</svg>
