<svg width="51" height="50" viewBox="0 0 51 50" fill="none" xmlns="http://www.w3.org/2000/svg">
<g id="healthicons:construction-outline">
<path id="Vector" fill-rule="evenodd" clip-rule="evenodd" d="M19.2 4.16663H31.7C31.9763 4.16663 32.2412 4.27637 32.4366 4.47172C32.6319 4.66707 32.7417 4.93203 32.7417 5.20829V5.72913H33.8333V4.16663H38V11.4583H33.8333V9.89579H32.7417V10.4166C32.7417 10.6929 32.6319 10.9578 32.4366 11.1532C32.2412 11.3485 31.9763 11.4583 31.7 11.4583H28.9229V21.0968L30.1625 22.3364V43.0062C30.1625 43.835 29.8333 44.6299 29.2472 45.2159C28.6612 45.802 27.8663 46.1312 27.0375 46.1312H25.0042C24.1754 46.1312 23.3805 45.802 22.7945 45.2159C22.2084 44.6299 21.8792 43.835 21.8792 43.0062V22.3364L23.1188 21.0968V11.4583H21.2833C20.7308 11.4583 20.2009 11.2388 19.8102 10.8481C19.4195 10.4574 19.2 9.92749 19.2 9.37496V6.24996C17.8274 6.26314 16.5154 6.81768 15.5494 7.79301C14.5835 8.76834 14.0416 10.0856 14.0417 11.4583H11.9583C11.9583 9.53305 12.7197 7.68593 14.0763 6.3199C15.433 4.95388 17.2748 4.17983 19.2 4.16663ZM30.6583 6.24996H21.2833V9.37496H30.6583V6.24996ZM25.2021 11.4583H26.8396V21.9583L28.0792 23.1989V43.0062C28.0792 43.2825 27.9694 43.5474 27.7741 43.7428C27.5787 43.9381 27.3138 44.0479 27.0375 44.0479H25.0042C24.7279 44.0479 24.463 43.9381 24.2676 43.7428C24.0723 43.5474 23.9625 43.2825 23.9625 43.0062V23.1979L25.2021 21.9583V11.4583Z" fill="white"/>
</g>
</svg>
