<svg width="61" height="61" viewBox="0 0 61 61" fill="none" xmlns="http://www.w3.org/2000/svg">
<g id="mdi:head-idea">
<path id="Vector" d="M36.6851 12.4938C29.055 10.6314 21.4449 15.1002 19.2276 22.515L14.0918 26.687C13.453 27.1959 13.6917 28.3264 14.5417 28.5339L17.5776 29.2749L16.0956 35.3467C15.5472 37.5932 16.9088 39.8342 19.1554 40.3825L21.1793 40.8765L19.6973 46.9483L33.8647 50.4063L36.1816 40.9142C41.5316 39.8182 46.0112 35.7863 47.3945 30.1193C49.3013 22.307 44.5379 14.4106 36.6851 12.4938ZM33.2749 35.2509L29.2271 34.2629L29.7211 32.239L33.7689 33.227L33.2749 35.2509ZM38.7362 26.9337C37.9751 27.7122 37.0237 28.2784 35.9764 28.5761L35.2749 31.4501L29.2032 29.9681L29.9047 27.0941C27.4205 24.7078 27.3126 20.757 29.6939 18.2931C32.0753 15.8292 36.0561 15.6857 38.5453 18.0518C41.0344 20.4178 41.1324 24.4091 38.7362 26.9337Z" fill="white"/>
</g>
</svg>
