<svg width="50" height="50" viewBox="0 0 50 50" fill="none" xmlns="http://www.w3.org/2000/svg">
<g id="ph:book-bold">
<path id="Vector" d="M40.625 3.90625H14.0625C12.1977 3.90625 10.4093 4.64704 9.09066 5.96566C7.77204 7.28427 7.03125 9.0727 7.03125 10.9375V43.75C7.03125 44.3716 7.27818 44.9677 7.71772 45.4073C8.15726 45.8468 8.7534 46.0938 9.375 46.0938H37.5C38.1216 46.0938 38.7177 45.8468 39.1573 45.4073C39.5968 44.9677 39.8438 44.3716 39.8438 43.75C39.8438 43.1284 39.5968 42.5323 39.1573 42.0927C38.7177 41.6532 38.1216 41.4062 37.5 41.4062H11.7188V40.625C11.7188 40.0034 11.9657 39.4073 12.4052 38.9677C12.8448 38.5282 13.4409 38.2812 14.0625 38.2812H40.625C41.2466 38.2812 41.8427 38.0343 42.2823 37.5948C42.7218 37.1552 42.9688 36.5591 42.9688 35.9375V6.25C42.9688 5.6284 42.7218 5.03226 42.2823 4.59272C41.8427 4.15318 41.2466 3.90625 40.625 3.90625ZM38.2812 33.5938H14.0625C13.2639 33.5922 12.4711 33.7283 11.7188 33.9961V10.9375C11.7188 10.3159 11.9657 9.71976 12.4052 9.28022C12.8448 8.84068 13.4409 8.59375 14.0625 8.59375H38.2812V33.5938Z" fill="white"/>
</g>
</svg>
