<svg width="37" height="37" viewBox="0 0 37 37" fill="none" xmlns="http://www.w3.org/2000/svg">
<g id="ph:code-bold" clip-path="url(#clip0_1_26)">
<path id="Vector" d="M12.7583 13.1224L7.66914 15.5412L10.9665 20.1104C11.0763 20.26 11.1555 20.4299 11.1993 20.6103C11.2432 20.7906 11.2509 20.9779 11.2221 21.1613C11.1932 21.3446 11.1283 21.5205 11.0312 21.6786C10.934 21.8368 10.8065 21.9741 10.656 22.0828C10.5055 22.1914 10.335 22.2692 10.1543 22.3116C9.97359 22.354 9.78628 22.3603 9.60316 22.3299C9.42003 22.2996 9.24473 22.2333 9.08734 22.1349C8.92996 22.0365 8.79362 21.9079 8.68618 21.7566L4.4017 15.8188C4.28102 15.6517 4.19858 15.46 4.16022 15.2574C4.12187 15.0548 4.12853 14.8462 4.17974 14.6465C4.23096 14.4468 4.32546 14.2607 4.45657 14.1016C4.58768 13.9425 4.75218 13.8141 4.93842 13.7256L11.5514 10.5821C11.8878 10.4256 12.2724 10.4083 12.6214 10.5341C12.9705 10.6599 13.2557 10.9185 13.4149 11.2536C13.5741 11.5887 13.5944 11.9732 13.4714 12.3232C13.3485 12.6733 13.0921 12.9605 12.7583 13.1224ZM32.1095 20.6925L27.825 14.7548C27.7175 14.6034 27.5812 14.4748 27.4238 14.3764C27.2664 14.278 27.0911 14.2117 26.908 14.1814C26.7249 14.1511 26.5376 14.1573 26.3569 14.1997C26.1762 14.2421 26.0056 14.3199 25.8551 14.4286C25.7046 14.5372 25.5771 14.6746 25.48 14.8327C25.3828 14.9909 25.318 15.1667 25.2891 15.3501C25.2602 15.5334 25.2679 15.7207 25.3118 15.9011C25.3557 16.0814 25.4348 16.2513 25.5447 16.4009L28.842 20.9701L23.7529 23.3889C23.5846 23.4673 23.4335 23.5781 23.3082 23.7151C23.183 23.8521 23.0861 24.0126 23.0232 24.1872C22.9603 24.3618 22.9325 24.5472 22.9416 24.7326C22.9506 24.9179 22.9963 25.0997 23.076 25.2674C23.1556 25.435 23.2677 25.5853 23.4057 25.7094C23.5437 25.8335 23.7049 25.9291 23.88 25.9907C24.0551 26.0522 24.2407 26.0784 24.426 26.0679C24.6113 26.0574 24.7927 26.0102 24.9597 25.9292L31.5727 22.7857C31.759 22.6972 31.9235 22.5689 32.0546 22.4097C32.1857 22.2506 32.2802 22.0646 32.3314 21.8648C32.3826 21.6651 32.3893 21.4566 32.3509 21.254C32.3126 21.0514 32.2301 20.8597 32.1095 20.6925ZM25.2432 8.03661C25.0907 7.93235 24.9192 7.85914 24.7384 7.82118C24.5576 7.78321 24.3712 7.78123 24.1896 7.81535C24.0081 7.84946 23.8351 7.91901 23.6804 8.02001C23.5258 8.12101 23.3925 8.25149 23.2883 8.404L10.9006 26.5199C10.6904 26.8278 10.6111 27.2065 10.68 27.5729C10.749 27.9392 10.9606 28.2632 11.2683 28.4736C11.4032 28.5668 11.5536 28.6353 11.7125 28.6758C11.9921 28.7476 12.2871 28.7315 12.5573 28.6298C12.8275 28.5281 13.0599 28.3457 13.2228 28.1074L25.6105 9.99146C25.7148 9.83899 25.788 9.66747 25.826 9.48671C25.8639 9.30594 25.8659 9.11946 25.8318 8.93793C25.7977 8.7564 25.7281 8.58336 25.6271 8.42871C25.5261 8.27406 25.3957 8.14083 25.2432 8.03661Z" fill="white"/>
</g>
<defs>
<clipPath id="clip0_1_26">
<rect width="30" height="30" fill="white" transform="translate(7.45123) rotate(14.3813)"/>
</clipPath>
</defs>
</svg>
