<svg width="51" height="50" viewBox="0 0 51 50" fill="none" xmlns="http://www.w3.org/2000/svg">
<g id="ph:chat-bold">
<path id="Vector" d="M42.6875 8.59375H8.3125C7.2765 8.59375 6.28293 9.0053 5.55036 9.73786C4.8178 10.4704 4.40625 11.464 4.40625 12.5V43.75C4.40313 44.4939 4.61442 45.2229 5.01484 45.8499C5.41525 46.4768 5.98783 46.9751 6.66406 47.2852C7.18316 47.5282 7.7491 47.6548 8.32227 47.6562C9.2395 47.6539 10.1264 47.3274 10.8262 46.7344L10.8633 46.7031L16.9062 41.4062H42.6875C43.7235 41.4062 44.7171 40.9947 45.4496 40.2621C46.1822 39.5296 46.5938 38.536 46.5938 37.5V12.5C46.5938 11.464 46.1822 10.4704 45.4496 9.73786C44.7171 9.0053 43.7235 8.59375 42.6875 8.59375ZM41.9062 36.7188H16.6133C15.6937 36.7187 14.8036 37.0431 14.0996 37.6348L14.0625 37.666L9.09375 42.0195V13.2812H41.9062V36.7188Z" fill="white"/>
</g>
</svg>
