<svg width="51" height="50" viewBox="0 0 51 50" fill="none" xmlns="http://www.w3.org/2000/svg">
<g id="ant-design:shop-outlined">
<path id="Vector" d="M43.5664 13.2861V7.03125C43.5664 6.16699 42.8682 5.46875 42.0039 5.46875H8.99612C8.13187 5.46875 7.43362 6.16699 7.43362 7.03125V13.2861C6.61819 13.335 5.96878 14.0137 5.96878 14.8438V21.2744C5.96565 22.4563 6.20496 23.6262 6.67191 24.7119C6.88187 25.21 7.14066 25.6787 7.43362 26.123V42.9688C7.43362 43.8281 8.13187 44.5312 8.99612 44.5312H42.0039C42.8682 44.5312 43.5664 43.833 43.5664 42.9688V26.123C43.864 25.6776 44.119 25.2051 44.3282 24.7119C44.792 23.623 45.0313 22.4658 45.0313 21.2744V14.8438C45.0313 14.0137 44.3819 13.335 43.5664 13.2861ZM10.9492 8.98438H40.0508V13.2812H10.9492V8.98438ZM28.625 41.0205H22.375V35.9375H28.625V41.0205ZM40.0508 41.0205H31.75V34.375C31.75 33.5107 31.0518 32.8125 30.1875 32.8125H20.8125C19.9483 32.8125 19.25 33.5107 19.25 34.375V41.0205H10.9492V29.1943C11.0909 29.2627 11.2373 29.3311 11.3887 29.3897C12.4776 29.8486 13.6348 30.0781 14.8262 30.0781C16.0176 30.0781 17.17 29.8486 18.2637 29.3897C18.9375 29.1064 19.5723 28.7451 20.1533 28.3105C20.1631 28.3057 20.1729 28.3057 20.1826 28.3105C20.7655 28.747 21.4002 29.1094 22.0723 29.3897C23.1612 29.8486 24.3184 30.0781 25.5098 30.0781C26.7012 30.0781 27.8535 29.8486 28.9473 29.3897C29.6211 29.1064 30.2559 28.7451 30.8369 28.3105C30.8467 28.3057 30.8565 28.3057 30.8662 28.3105C31.4491 28.747 32.0838 29.1094 32.7559 29.3897C33.8448 29.8486 35.002 30.0781 36.1934 30.0781C37.3848 30.0781 38.5371 29.8486 39.6309 29.3897C39.7774 29.3262 39.9239 29.2627 40.0703 29.1943V41.0205H40.0508ZM41.5157 21.2744C41.5157 24.1943 39.1231 26.5625 36.1787 26.5625C34.1866 26.5625 32.4483 25.4834 31.5303 23.8818C31.3887 23.6377 31.1348 23.4863 30.8516 23.4863H30.8223C30.544 23.4863 30.2852 23.6377 30.1436 23.8818C29.6751 24.6988 28.9987 25.3772 28.1831 25.848C27.3675 26.3189 26.4418 26.5654 25.5 26.5625C23.5127 26.5625 21.7793 25.4883 20.8614 23.8916C20.7149 23.6426 20.4512 23.4863 20.1631 23.4863C19.875 23.4863 19.6065 23.6426 19.4649 23.8916C18.9937 24.7055 18.3164 25.3808 17.5012 25.8497C16.686 26.3186 15.7617 26.5644 14.8213 26.5625C11.877 26.5625 9.48441 24.1943 9.48441 21.2744V16.8213C9.48441 16.8066 9.49417 16.7969 9.50882 16.7969H41.4912C41.5059 16.7969 41.5157 16.8066 41.5157 16.8213V21.2744Z" fill="white"/>
</g>
</svg>
