<svg width="60" height="60" viewBox="0 0 60 60" fill="none" xmlns="http://www.w3.org/2000/svg">
<g id="web-design (1) 1">
<g id="Group">
<g id="Group_2">
<path id="Vector" d="M43.9479 15.3346H31.7038C31.3096 15.3346 30.9902 15.654 30.9902 16.0482C30.9902 16.4424 31.3097 16.7618 31.7038 16.7618H43.9478C44.342 16.7618 44.6616 16.4424 44.6616 16.0482C44.6615 15.654 44.3421 15.3346 43.9479 15.3346Z" fill="#00AD98"/>
</g>
</g>
<g id="Group_3">
<g id="Group_4">
<path id="Vector_2" d="M37.1563 18.3757H31.7037C31.3095 18.3757 30.9901 18.6952 30.9901 19.0894C30.9901 19.4836 31.3096 19.803 31.7037 19.803H37.1563C37.5505 19.803 37.8699 19.4836 37.8699 19.0894C37.8699 18.6951 37.5504 18.3757 37.1563 18.3757Z" fill="#00AD98"/>
</g>
</g>
<g id="Group_5">
<g id="Group_6">
<path id="Vector_3" d="M56.9188 18.5002C56.5247 18.5002 56.2052 18.8196 56.2052 19.2138C56.2052 19.608 56.5246 19.9275 56.9188 19.9275C57.6209 19.9275 58.1921 20.4986 58.1921 21.2007V41.4772H52.9839V19.9274H54.1732C54.5673 19.9274 54.8868 19.608 54.8868 19.2137C54.8868 18.8196 54.5674 18.5001 54.1732 18.5001H52.9839V13.6442C52.9839 12.4619 52.022 11.5 50.8397 11.5H20.9701C19.7878 11.5 18.826 12.4619 18.826 13.6442V18.5002H15.0812C13.5922 18.5002 12.3807 19.7117 12.3807 21.2007V42.1908V48.7668C12.3807 50.2558 13.5922 51.4672 15.0812 51.4672H19.476C19.8701 51.4672 20.1896 51.1478 20.1896 50.7536C20.1896 50.3595 19.8702 50.04 19.476 50.04H15.0812C14.3791 50.04 13.808 49.4688 13.808 48.7668V42.9044H19.5395H52.2701H58.192V48.7668C58.192 49.4688 57.6208 50.04 56.9187 50.04H41.1354H30.8647H22.838C22.4439 50.04 22.1244 50.3594 22.1244 50.7536C22.1244 51.1477 22.4438 51.4672 22.838 51.4672H30.1511V55.2487C28.229 55.283 26.6756 56.8563 26.6756 58.7864C26.6756 59.1805 26.995 59.5 27.3892 59.5H44.6109C45.005 59.5 45.3245 59.1806 45.3245 58.7864C45.3245 56.8563 43.7711 55.2829 41.849 55.2487V51.4672H56.9188C58.4079 51.4672 59.6193 50.2558 59.6193 48.7668V42.1908V21.2007C59.6192 19.7117 58.4078 18.5002 56.9188 18.5002ZM18.826 41.4772H13.808V21.2007C13.808 20.4986 14.3791 19.9275 15.0812 19.9275H18.826V41.4772ZM51.5566 21.9257H27.2465C26.8524 21.9257 26.5329 22.2451 26.5329 22.6393C26.5329 23.0335 26.8523 23.3529 27.2465 23.3529H51.5566V41.4772H20.2531V23.3529H23.5357C23.9298 23.3529 24.2493 23.0335 24.2493 22.6393C24.2493 22.2451 23.9299 21.9257 23.5357 21.9257H20.2531V13.6442C20.2531 13.2488 20.5747 12.9273 20.97 12.9273H50.8397C51.2351 12.9273 51.5566 13.2488 51.5566 13.6442V21.9257ZM31.5782 51.4671H40.4217V55.247H31.5782V51.4671ZM43.7732 58.0728H28.2268C28.5201 57.2582 29.3006 56.6743 30.2149 56.6743H30.8647H41.1354H41.7851C42.6995 56.6743 43.48 57.2582 43.7732 58.0728Z" fill="#00AD98"/>
</g>
</g>
<g id="Group_7">
<g id="Group_8">
<path id="Vector_4" d="M36.3827 44.3156C35.1936 44.3156 34.2261 45.283 34.2261 46.4723C34.2261 47.6614 35.1936 48.6289 36.3827 48.6289C37.572 48.6289 38.5394 47.6615 38.5394 46.4723C38.5394 45.283 37.5719 44.3156 36.3827 44.3156ZM36.3827 47.2016C35.9806 47.2017 35.6533 46.8745 35.6533 46.4723C35.6533 46.07 35.9806 45.7428 36.3827 45.7428C36.785 45.7428 37.1122 46.0701 37.1122 46.4723C37.1122 46.8745 36.7849 47.2016 36.3827 47.2016Z" fill="#00AD98"/>
</g>
</g>
<g id="Group_9">
<g id="Group_10">
<path id="Vector_5" d="M28.0655 18.881L25.7167 14.8127C25.5892 14.592 25.3537 14.4559 25.0987 14.4559C24.8437 14.4559 24.6082 14.592 24.4807 14.8127L22.1318 18.881C22.0043 19.1018 22.0043 19.3739 22.1318 19.5947C22.2593 19.8154 22.4948 19.9515 22.7498 19.9515H27.4476C27.7025 19.9515 27.9381 19.8154 28.0655 19.5947C28.193 19.3739 28.193 19.1018 28.0655 18.881ZM23.9858 18.5243L25.0987 16.5968L26.2116 18.5243H23.9858Z" fill="#00AD98"/>
</g>
</g>
<g id="Group_11">
<g id="Group_12">
<path id="Vector_6" d="M49.4537 25.9841H39.1188C38.7247 25.9841 38.4052 26.3035 38.4052 26.6978C38.4052 27.0919 38.7246 27.4114 39.1188 27.4114H49.4537C49.8478 27.4114 50.1673 27.092 50.1673 26.6978C50.1673 26.3035 49.8478 25.9841 49.4537 25.9841Z" fill="#00AD98"/>
</g>
</g>
<g id="Group_13">
<g id="Group_14">
<path id="Vector_7" d="M49.4537 29.1227H39.1188C38.7247 29.1227 38.4052 29.4421 38.4052 29.8363C38.4052 30.2305 38.7246 30.5499 39.1188 30.5499H49.4537C49.8478 30.5499 50.1673 30.2305 50.1673 29.8363C50.1673 29.4421 49.8478 29.1227 49.4537 29.1227Z" fill="#00AD98"/>
</g>
</g>
<g id="Group_15">
<g id="Group_16">
<path id="Vector_8" d="M49.4537 32.2611H39.1188C38.7247 32.2611 38.4052 32.5805 38.4052 32.9747C38.4052 33.3689 38.7246 33.6884 39.1188 33.6884H49.4537C49.8478 33.6884 50.1673 33.369 50.1673 32.9747C50.1673 32.5805 49.8478 32.2611 49.4537 32.2611Z" fill="#00AD98"/>
</g>
</g>
<g id="Group_17">
<g id="Group_18">
<path id="Vector_9" d="M49.4537 35.3995H39.1188C38.7247 35.3995 38.4052 35.7189 38.4052 36.1132C38.4052 36.5073 38.7246 36.8268 39.1188 36.8268H49.4537C49.8478 36.8268 50.1673 36.5074 50.1673 36.1132C50.1673 35.7189 49.8478 35.3995 49.4537 35.3995Z" fill="#00AD98"/>
</g>
</g>
<g id="Group_19">
<g id="Group_20">
<path id="Vector_10" d="M43.9478 38.5381H39.1188C38.7247 38.5381 38.4052 38.8575 38.4052 39.2517C38.4052 39.6458 38.7246 39.9653 39.1188 39.9653H43.9478C44.342 39.9653 44.6615 39.6459 44.6615 39.2517C44.6615 38.8575 44.3421 38.5381 43.9478 38.5381Z" fill="#00AD98"/>
</g>
</g>
<g id="Group_21">
<g id="Group_22">
<path id="Vector_11" d="M35.9049 25.3829H22.7498C22.3556 25.3829 22.0361 25.7023 22.0361 26.0966V34.5107V39.2517C22.0361 39.6458 22.3555 39.9653 22.7498 39.9653H35.9049C36.299 39.9653 36.6185 39.6459 36.6185 39.2517V35.2198V26.0966C36.6185 25.7023 36.299 25.3829 35.9049 25.3829ZM23.4635 26.8102H35.1912V34.2717C35.1114 34.2581 35.0315 34.2461 34.9517 34.2372C33.7079 34.0977 32.9928 34.5955 32.4179 34.9952C31.9864 35.2952 31.6137 35.5543 30.9895 35.605C29.9799 35.6878 29.3325 35.151 28.5125 34.4727C27.5996 33.7177 26.5643 32.8629 24.9186 32.962C24.4251 32.992 23.9387 33.1054 23.4635 33.2999V26.8102ZM35.1913 38.538H23.4634V34.8942C23.9696 34.5885 24.4868 34.4181 25.0051 34.3866C26.0891 34.3205 26.7907 34.9007 27.6028 35.5724C28.5003 36.3147 29.5168 37.1554 31.1049 37.0275C32.1126 36.9458 32.7336 36.514 33.2327 36.1671C33.7446 35.8112 34.0832 35.5764 34.7931 35.6555C34.925 35.6703 35.0581 35.6951 35.1913 35.7297V38.538Z" fill="#00AD98"/>
</g>
</g>
<g id="Group_23">
<g id="Group_24">
<path id="Vector_12" d="M31.21 28.4043C30.0061 28.4043 29.0267 29.3837 29.0267 30.5876C29.0267 31.7915 30.0061 32.771 31.21 32.771C32.414 32.771 33.3934 31.7916 33.3934 30.5876C33.3934 29.3837 32.414 28.4043 31.21 28.4043ZM31.21 31.3438C30.7931 31.3438 30.4538 31.0045 30.4538 30.5876C30.4538 30.1706 30.7931 29.8315 31.21 29.8315C31.6269 29.8315 31.9662 30.1707 31.9662 30.5876C31.9662 31.0045 31.6269 31.3438 31.21 31.3438Z" fill="#00AD98"/>
</g>
</g>
<circle id="Ellipse 3" cx="20" cy="20.5" r="20" fill="#00AD98" fill-opacity="0.2"/>
</g>
</svg>
