<svg width="30" height="30" viewBox="0 0 30 30" fill="none" xmlns="http://www.w3.org/2000/svg">
<g id="mdi:youtube">
<path id="Vector" d="M12.5 18.75L18.9875 15L12.5 11.25V18.75ZM26.95 8.9625C27.1125 9.55 27.225 10.3375 27.3 11.3375C27.3875 12.3375 27.425 13.2 27.425 13.95L27.5 15C27.5 17.7375 27.3 19.75 26.95 21.0375C26.6375 22.1625 25.9125 22.8875 24.7875 23.2C24.2 23.3625 23.125 23.475 21.475 23.55C19.85 23.6375 18.3625 23.675 16.9875 23.675L15 23.75C9.7625 23.75 6.5 23.55 5.2125 23.2C4.0875 22.8875 3.3625 22.1625 3.05 21.0375C2.8875 20.45 2.775 19.6625 2.7 18.6625C2.6125 17.6625 2.575 16.8 2.575 16.05L2.5 15C2.5 12.2625 2.7 10.25 3.05 8.9625C3.3625 7.8375 4.0875 7.1125 5.2125 6.8C5.8 6.6375 6.875 6.525 8.525 6.45C10.15 6.3625 11.6375 6.325 13.0125 6.325L15 6.25C20.2375 6.25 23.5 6.45 24.7875 6.8C25.9125 7.1125 26.6375 7.8375 26.95 8.9625Z" fill="white"/>
</g>
</svg>
